<?xml version="1.0" standalone="no"?>
<!DOCTYPE svg PUBLIC "-//W3C//DTD SVG 20010904//EN"
 "http://www.w3.org/TR/2001/REC-SVG-20010904/DTD/svg10.dtd">
<svg version="1.0" xmlns="http://www.w3.org/2000/svg"
 width="1427.000000pt" height="1288.000000pt" viewBox="0 0 1427.000000 1288.000000"
 preserveAspectRatio="xMidYMid meet">
<metadata>
Created by potrace 1.16, written by Peter Selinger 2001-2019
</metadata>
<g transform="translate(0.000000,1288.000000) scale(0.100000,-0.100000)"
fill="#eaedf4" stroke="none">
<path d="M3295 12874 c-526 -54 -951 -204 -1323 -466 -251 -177 -476 -411
-601 -624 -100 -171 -146 -396 -99 -489 60 -118 179 -91 391 90 42 36 77 63
77 61 0 -3 -26 -52 -58 -109 -53 -96 -124 -242 -323 -667 -84 -180 -163 -327
-222 -414 -83 -123 -299 -325 -422 -396 -27 -16 -86 -41 -130 -56 -74 -26 -91
-28 -240 -29 -154 0 -163 1 -250 32 -50 17 -92 29 -94 28 -6 -7 203 -210 264
-256 175 -134 332 -219 514 -279 155 -51 274 -70 445 -70 232 0 455 45 677
135 63 25 121 48 129 51 12 4 22 -23 47 -128 18 -73 59 -232 92 -353 79 -294
94 -376 89 -500 -3 -83 -9 -108 -30 -150 -36 -70 -106 -131 -196 -171 -122
-54 -144 -67 -166 -97 -19 -25 -19 -31 -7 -89 55 -266 339 -521 734 -657 474
-163 1198 -182 1736 -45 74 19 136 32 138 30 3 -2 -9 -68 -26 -146 -44 -198
-78 -403 -92 -550 -19 -203 0 -599 37 -744 5 -21 2 -25 -28 -31 -116 -23 -258
-86 -375 -167 -86 -60 -218 -195 -273 -279 -68 -106 -120 -266 -120 -373 0
-50 32 -256 39 -256 3 0 28 39 55 86 26 47 75 115 108 150 58 61 155 141 163
133 2 -3 -12 -40 -32 -84 -19 -44 -47 -123 -61 -175 -22 -83 -25 -115 -25
-250 0 -128 3 -169 21 -235 41 -147 135 -308 218 -371 29 -23 36 -24 52 -12
26 18 90 95 108 130 8 15 18 28 23 28 5 0 21 -18 37 -41 39 -56 160 -167 227
-207 139 -83 325 -117 493 -89 55 9 123 26 152 38 29 12 55 20 57 17 7 -6 -31
-316 -60 -498 -137 -845 -381 -1574 -731 -2187 -77 -134 -94 -179 -94 -250 0
-49 4 -59 33 -88 45 -45 89 -55 255 -55 95 0 142 -4 142 -11 0 -6 -38 -84 -84
-173 -84 -161 -105 -228 -92 -281 11 -43 64 -93 123 -115 168 -63 793 -120
1158 -105 378 15 676 73 761 147 49 43 57 63 108 259 84 323 128 576 163 919
24 245 24 868 0 1130 -42 448 -130 994 -223 1388 -13 57 -24 105 -24 106 0 2
127 6 283 9 155 4 318 11 362 16 44 5 109 13 145 16 l65 7 96 -128 c258 -343
422 -647 535 -991 221 -669 168 -1341 -166 -2073 -109 -239 -129 -324 -90
-387 39 -64 104 -79 393 -89 108 -4 197 -9 197 -11 0 -3 -9 -18 -20 -33 -29
-41 -50 -106 -50 -156 0 -53 40 -104 99 -127 100 -40 494 -72 766 -62 438 15
774 55 913 107 69 26 110 62 133 116 42 97 103 369 135 602 21 156 30 663 15
841 -49 558 -213 1167 -476 1764 -97 221 -306 624 -349 673 -91 103 -198 106
-427 12 -39 -17 -73 -30 -74 -30 -2 0 19 37 47 83 118 197 258 502 336 733 98
291 141 510 149 759 13 391 -71 724 -251 1000 -55 84 -55 86 -33 94 178 67
244 89 374 122 220 56 361 72 563 66 91 -4 195 -13 231 -21 332 -75 561 -260
722 -582 146 -291 179 -561 105 -879 -44 -191 -117 -375 -333 -835 -246 -526
-314 -776 -302 -1117 8 -226 49 -388 148 -587 162 -324 476 -548 860 -614 l97
-16 6 -41 c4 -22 19 -63 35 -92 l28 -52 -33 -32 c-82 -79 -165 -232 -209 -384
-82 -283 -22 -685 108 -728 89 -29 170 65 253 293 20 58 41 109 45 114 4 4 16
-13 28 -38 60 -137 220 -331 346 -421 160 -114 364 -175 584 -175 255 0 546
87 661 198 108 104 65 191 -105 215 l-76 10 58 25 c193 81 368 262 444 457 51
131 63 219 64 455 0 193 -2 226 -24 318 -13 56 -28 99 -32 95 -4 -4 -30 -66
-58 -137 -28 -71 -72 -163 -98 -205 -45 -72 -216 -261 -227 -250 -3 3 2 32 11
64 24 86 24 255 0 317 -23 60 -90 120 -166 149 -44 18 -83 24 -182 27 -163 5
-300 -19 -533 -95 -65 -21 -80 -23 -87 -12 -17 26 -9 34 59 58 93 34 310 145
412 212 329 215 624 548 788 889 154 320 212 565 271 1150 55 534 57 1058 5
1463 -77 609 -270 1127 -585 1569 -326 458 -870 891 -1374 1093 -220 88 -382
127 -608 145 -359 29 -799 -53 -1182 -221 -706 -309 -1296 -895 -1554 -1546
-8 -18 -11 -39 -7 -48 8 -21 3 -20 -89 19 -116 50 -244 85 -374 102 -256 34
-610 -36 -985 -195 -66 -28 -120 -49 -121 -48 -1 1 -10 34 -20 72 -25 100 -66
194 -146 341 -472 861 -721 1710 -804 2737 l-16 188 26 80 c58 184 105 494
105 689 -1 381 -151 801 -410 1145 -172 228 -370 397 -491 420 -107 20 -216
-69 -305 -251 l-37 -74 -39 36 c-90 81 -310 203 -473 263 -33 13 -73 28 -90
36 -47 20 -309 93 -420 115 -234 49 -361 61 -635 65 -146 1 -283 1 -305 -1z"/>
</g>
</svg>
