<?xml version="1.0" standalone="no"?>
<!DOCTYPE svg PUBLIC "-//W3C//DTD SVG 20010904//EN"
 "http://www.w3.org/TR/2001/REC-SVG-20010904/DTD/svg10.dtd">
<svg version="1.0" xmlns="http://www.w3.org/2000/svg"
 width="765.000000pt" height="768.000000pt" viewBox="0 0 765.000000 768.000000"
 preserveAspectRatio="xMidYMid meet">
<metadata>
Created by potrace 1.16, written by Peter Selinger 2001-2019
</metadata>
<g transform="translate(0.000000,768.000000) scale(0.100000,-0.100000)"
fill="#eaedf4" stroke="none">
<path d="M1570 7669 c-443 -51 -855 -225 -1116 -472 -247 -233 -398 -522 -445
-846 -15 -106 -7 -328 16 -436 57 -271 195 -549 396 -800 35 -44 163 -181 284
-305 234 -239 349 -380 433 -533 151 -273 154 -515 10 -659 -67 -68 -127 -92
-223 -93 -96 0 -150 21 -221 87 -98 90 -98 190 -1 262 63 47 213 13 259 -58
29 -45 38 -45 38 1 0 123 -158 250 -325 261 -144 9 -265 -51 -323 -162 -25
-48 -27 -59 -27 -176 1 -105 4 -134 23 -181 117 -295 465 -487 846 -466 236
13 392 74 544 212 36 33 63 51 59 41 -4 -11 -17 -76 -29 -145 -30 -173 -32
-485 -4 -611 65 -297 197 -500 325 -500 74 0 169 73 247 190 l44 65 0 -86 c0
-286 130 -629 304 -805 113 -114 176 -127 286 -61 107 64 218 244 261 422 36
152 26 325 -26 448 -7 17 -4 18 31 10 22 -4 75 -8 119 -8 90 1 147 21 218 77
32 26 39 29 33 13 -21 -55 -67 -204 -83 -272 -13 -56 -18 -117 -18 -218 1
-121 4 -148 23 -196 26 -65 75 -120 135 -151 63 -33 189 -36 297 -9 107 27
259 101 316 153 25 23 46 39 47 37 2 -2 10 -41 19 -86 37 -186 126 -297 256
-317 57 -9 165 15 243 53 34 18 64 30 66 28 2 -2 -3 -36 -12 -76 -30 -145 -15
-299 42 -402 130 -241 524 -419 922 -419 156 0 274 23 402 78 139 59 209 80
333 98 337 50 676 -64 770 -259 54 -112 40 -213 -40 -273 -32 -25 -46 -29 -98
-29 -71 1 -109 18 -168 77 l-41 41 6 -37 c9 -57 49 -101 124 -138 62 -30 76
-33 158 -33 81 0 96 3 151 32 78 41 157 125 179 194 44 131 -16 313 -152 459
-126 136 -262 220 -448 276 -85 26 -101 28 -290 28 -110 0 -273 -5 -362 -10
-285 -19 -480 9 -559 79 -40 34 -64 81 -64 122 0 40 61 97 167 155 238 129
355 216 446 330 102 128 158 246 206 433 100 390 102 835 4 1277 -60 273 -204
629 -331 819 -70 105 -202 241 -302 310 -456 319 -1044 246 -1443 -179 -42
-45 -80 -79 -85 -76 -5 3 24 39 64 80 212 220 245 476 65 515 l-28 6 91 127
c256 357 393 643 404 844 5 108 -5 148 -53 194 -29 28 -44 34 -90 38 -68 6
-125 -14 -197 -69 -29 -21 -54 -37 -56 -35 -2 3 21 71 51 153 219 596 275 916
177 1014 -36 37 -94 52 -145 38 -120 -33 -243 -181 -378 -456 l-65 -132 -5
262 c-8 413 -19 469 -98 509 -136 70 -317 -89 -505 -444 l-65 -123 7 85 c12
145 10 430 -5 495 -48 219 -219 235 -354 32 l-25 -37 -22 31 c-40 56 -118 109
-159 109 -45 0 -112 -42 -154 -95 l-28 -36 -37 29 c-175 138 -443 239 -731
277 -115 16 -390 18 -511 4z m675 -3101 c0 -164 5 -252 18 -334 17 -109 17
-113 -3 -197 -11 -47 -24 -118 -28 -158 l-7 -73 -55 2 c-50 2 -85 -4 -132 -23
-15 -6 -15 -3 -2 41 8 26 24 97 36 158 20 99 23 139 22 371 0 143 -5 289 -11
325 -6 36 -9 66 -8 68 3 3 142 39 160 41 6 1 10 -79 10 -221z m2741 -718 c133
-65 267 -231 345 -426 132 -326 142 -714 29 -1044 -30 -87 -112 -278 -157
-365 l-21 -40 -10 40 c-39 146 -47 223 -47 455 0 174 5 274 19 386 19 150 19
151 0 190 -31 61 -108 95 -229 102 -52 2 -95 8 -95 13 0 4 11 49 25 101 59
220 50 462 -22 602 l-15 29 55 -5 c35 -3 80 -17 123 -38z m-1607 -910 c4 0 13
-16 20 -35 14 -38 54 -75 82 -75 14 0 19 7 19 31 0 26 3 30 22 27 74 -10 50
-189 -29 -219 -41 -15 -108 14 -165 72 -65 67 -68 84 -21 152 22 33 43 54 51
52 8 -3 17 -5 21 -5z"/>
</g>
</svg>
