<?xml version="1.0" standalone="no"?>
<!DOCTYPE svg PUBLIC "-//W3C//DTD SVG 20010904//EN"
 "http://www.w3.org/TR/2001/REC-SVG-20010904/DTD/svg10.dtd">
<svg version="1.0" xmlns="http://www.w3.org/2000/svg"
 width="1462.000000pt" height="1296.000000pt" viewBox="0 0 1462.000000 1296.000000"
 preserveAspectRatio="xMidYMid meet">
<metadata>
Created by potrace 1.16, written by Peter Selinger 2001-2019
</metadata>
<g transform="translate(0.000000,1296.000000) scale(0.100000,-0.100000)"
fill="#eaedf4" stroke="none">
<path d="M3315 12954 c-249 -37 -502 -152 -669 -305 -113 -103 -201 -242 -252
-399 -25 -77 -28 -99 -28 -230 -1 -142 0 -147 36 -252 20 -58 53 -139 73 -178
20 -40 33 -71 28 -69 -4 2 -46 23 -93 46 -119 60 -191 76 -314 71 -86 -4 -109
-8 -155 -32 -118 -61 -195 -165 -230 -312 -21 -92 -11 -89 -168 -56 -288 62
-682 -17 -943 -189 -275 -180 -459 -454 -551 -817 -139 -548 36 -972 541
-1311 267 -179 548 -274 885 -299 l100 -8 -95 -31 c-145 -48 -209 -57 -380
-56 -160 1 -243 13 -368 54 -35 12 -65 19 -68 16 -2 -2 16 -32 41 -65 141
-187 458 -372 707 -412 135 -22 317 13 463 88 92 48 202 156 240 237 39 83 45
168 16 229 -40 81 -100 136 -239 218 -165 99 -234 151 -319 242 -127 136 -230
316 -259 456 -18 88 -8 162 32 241 51 102 192 223 316 271 76 30 256 36 369
13 196 -39 361 -143 455 -285 l26 -39 -45 -108 c-47 -111 -97 -285 -117 -406
-18 -112 -28 -345 -19 -451 11 -134 29 -218 109 -513 99 -363 113 -435 108
-551 -3 -84 -8 -104 -33 -151 -38 -68 -101 -119 -202 -161 -122 -51 -133 -61
-133 -125 0 -99 73 -235 188 -351 223 -225 578 -361 1052 -404 147 -13 478
-13 611 0 195 19 445 66 532 99 25 10 28 9 23 -6 -13 -45 -77 -359 -91 -453
-22 -139 -31 -514 -16 -663 63 -612 383 -1206 789 -1466 36 -23 52 -40 52 -55
0 -11 -5 -95 -10 -186 -66 -1073 -324 -2026 -752 -2777 -38 -67 -76 -144 -84
-170 -28 -91 2 -162 81 -194 17 -6 92 -14 168 -17 75 -2 137 -7 137 -9 0 -3
-35 -72 -77 -154 -68 -132 -78 -156 -81 -214 -4 -66 -4 -66 35 -104 60 -56
157 -81 463 -117 182 -21 728 -30 897 -15 236 22 438 74 496 128 38 36 48 60
91 223 76 288 123 555 152 873 20 213 23 740 5 952 -35 428 -102 864 -202
1312 -16 73 -29 134 -29 135 0 2 102 4 228 4 140 1 288 8 387 19 l160 17 38
-43 c60 -70 206 -279 279 -400 337 -561 460 -1153 357 -1729 -48 -272 -109
-462 -255 -792 -63 -143 -77 -185 -82 -240 -5 -66 -4 -68 30 -102 19 -19 52
-39 73 -46 22 -6 133 -14 248 -17 114 -3 207 -8 207 -10 0 -2 -11 -20 -24 -41
-33 -50 -50 -113 -42 -155 21 -114 190 -151 691 -151 518 -1 917 50 1021 129
43 33 66 87 107 251 106 421 126 923 56 1399 -84 575 -299 1203 -612 1794 -85
160 -137 230 -191 258 -61 32 -176 16 -320 -44 -32 -13 -59 -23 -61 -21 -2 2
15 32 37 68 110 180 243 474 321 711 179 540 168 1045 -30 1442 l-44 89 37 46
c72 89 259 268 361 344 222 167 462 281 804 383 l50 14 -30 -37 c-335 -404
-573 -842 -638 -1170 -23 -122 -21 -293 6 -397 80 -303 319 -565 681 -744
l135 -67 -58 -69 c-216 -256 -396 -631 -447 -933 -55 -318 4 -741 142 -1017
93 -186 267 -383 445 -503 286 -193 523 -252 1013 -252 141 1 283 6 355 15 66
8 122 15 125 15 3 0 -44 -51 -105 -113 -206 -212 -261 -358 -201 -529 82 -233
349 -407 710 -463 151 -24 458 -17 596 13 318 69 555 197 696 375 129 165 179
361 139 549 -19 93 -52 170 -116 272 -62 99 -56 105 -83 -72 -40 -258 -145
-435 -305 -515 -57 -28 -77 -32 -165 -35 -122 -5 -196 11 -339 70 l-102 43 45
8 c89 17 186 49 255 85 138 71 250 217 285 371 17 71 14 232 -4 298 -14 54
-13 63 12 63 7 0 47 13 88 30 284 114 468 369 529 739 26 151 17 363 -20 486
-91 309 -299 518 -554 557 l-84 13 59 24 c277 112 560 367 756 683 65 105 166
314 213 443 45 122 99 335 120 475 23 154 30 397 16 513 -58 458 -316 765
-731 870 -121 30 -381 30 -522 -1 -154 -34 -310 -90 -462 -166 -78 -39 -144
-72 -148 -74 -3 -2 14 57 38 130 102 301 147 522 147 708 -2 427 -201 793
-558 1022 -301 194 -712 293 -1109 267 -213 -14 -370 -51 -603 -144 -643 -259
-1226 -766 -1608 -1401 -118 -196 -217 -401 -306 -634 -26 -69 -51 -124 -56
-123 -4 1 -45 18 -90 38 -45 20 -126 48 -180 62 -90 25 -114 27 -288 27 -159
0 -206 -3 -291 -22 -138 -30 -261 -66 -375 -111 l-95 -37 -51 97 -50 97 86 7
c344 24 572 104 785 275 405 326 555 981 360 1568 -167 504 -539 794 -953 742
-53 -6 -136 -25 -186 -41 -49 -15 -90 -27 -91 -26 -2 1 13 27 33 57 103 160
212 443 257 670 39 194 49 323 43 525 -24 714 -320 1339 -793 1677 -177 127
-479 269 -684 322 -454 117 -896 7 -1148 -287 -52 -61 -152 -244 -152 -279 0
-33 -15 -18 -42 40 -101 216 -332 507 -533 672 -193 158 -419 272 -626 315
-75 16 -260 27 -314 19z"/>
</g>
</svg>
