<?xml version="1.0" standalone="no"?>
<!DOCTYPE svg PUBLIC "-//W3C//DTD SVG 20010904//EN"
 "http://www.w3.org/TR/2001/REC-SVG-20010904/DTD/svg10.dtd">
<svg version="1.0" xmlns="http://www.w3.org/2000/svg"
 width="1413.000000pt" height="1220.000000pt" viewBox="0 0 1413.000000 1220.000000"
 preserveAspectRatio="xMidYMid meet">
<metadata>
Created by potrace 1.16, written by Peter Selinger 2001-2019
</metadata>
<g transform="translate(0.000000,1220.000000) scale(0.100000,-0.100000)"
fill="#eaedf4" stroke="none">
<path d="M2260 12189 c-900 -49 -1617 -442 -2015 -1106 -63 -104 -137 -259
-151 -317 l-7 -30 25 20 c14 10 56 44 94 74 231 187 525 359 774 456 49 18 93
34 97 34 4 0 -38 -46 -93 -102 -55 -57 -125 -134 -156 -173 -352 -444 -567
-1049 -594 -1672 -4 -84 -5 -153 -1 -153 3 0 48 82 100 183 167 323 360 624
505 787 l40 45 -94 -326 c-113 -396 -157 -529 -241 -724 -104 -245 -246 -495
-452 -795 -50 -74 -89 -135 -87 -137 5 -6 175 59 356 135 223 94 617 294 820
415 l174 105 43 -156 c132 -484 161 -621 149 -717 -19 -151 -69 -212 -240
-295 -67 -32 -128 -66 -136 -75 -20 -24 -14 -106 13 -173 74 -183 258 -362
490 -476 266 -130 571 -192 998 -203 255 -6 442 5 639 38 99 16 299 62 335 75
8 3 -1 -59 -26 -178 -68 -330 -83 -456 -83 -708 -1 -237 9 -335 50 -539 54
-270 184 -579 343 -816 125 -188 248 -316 413 -432 l77 -54 -4 -77 c-16 -259
-28 -408 -46 -567 -104 -941 -358 -1779 -742 -2453 -38 -68 -76 -140 -83 -160
-19 -55 -17 -122 6 -159 35 -58 67 -67 238 -71 83 -2 152 -5 152 -7 0 -2 -37
-79 -82 -171 -75 -151 -83 -172 -83 -225 0 -126 92 -170 440 -213 335 -41 902
-47 1135 -12 196 30 340 74 388 119 34 32 48 62 81 183 203 733 244 1524 125
2424 -33 252 -115 703 -174 953 l-18 79 97 -7 c108 -7 454 9 606 29 64 8 104
10 112 4 7 -6 50 -60 96 -122 423 -565 628 -1117 630 -1696 1 -418 -78 -751
-298 -1252 -109 -247 -116 -315 -41 -373 45 -34 110 -44 338 -52 l196 -6 -22
-36 c-36 -60 -46 -90 -46 -143 0 -45 4 -54 38 -88 44 -44 74 -54 237 -77 169
-25 717 -24 965 1 330 33 472 65 539 123 57 48 102 184 150 450 57 316 73 780
37 1088 -78 674 -310 1386 -667 2048 -96 179 -118 210 -174 242 -74 44 -204
27 -379 -50 l-39 -17 15 24 c136 212 315 610 392 875 82 282 112 494 103 733
-8 227 -49 428 -121 599 l-34 80 87 36 c260 109 491 118 728 30 196 -74 352
-220 505 -475 251 -416 436 -1091 517 -1880 34 -321 41 -450 48 -787 5 -265 8
-321 19 -312 50 41 198 322 259 489 l34 95 1 -91 c0 -130 18 -423 35 -599 64
-640 227 -1122 501 -1488 60 -80 315 -358 334 -365 5 -2 -22 88 -59 200 -126
374 -182 701 -181 1068 l1 155 38 -115 c234 -703 674 -1180 1316 -1427 94 -36
503 -148 511 -140 3 3 -57 53 -133 113 -165 129 -297 258 -382 373 -90 122
-90 127 1 62 262 -185 560 -304 893 -356 97 -15 575 -34 575 -22 0 3 -87 50
-192 105 -414 213 -655 379 -871 598 -344 349 -504 756 -525 1339 -4 99 -5
245 -2 325 5 139 6 143 18 101 22 -73 128 -271 195 -363 122 -169 304 -361
430 -450 36 -25 38 -40 -22 135 -50 145 -113 400 -140 562 -60 364 -72 650
-51 1165 21 513 13 910 -26 1185 -65 459 -231 894 -445 1165 -22 28 -38 54
-35 57 11 11 171 -114 283 -221 115 -110 276 -287 368 -405 47 -61 50 -63 53
-37 5 37 -42 272 -78 398 -102 348 -263 667 -457 908 -87 107 -263 274 -373
353 -245 174 -566 294 -910 339 -122 16 -467 16 -590 0 -859 -112 -1661 -612
-2379 -1484 l-63 -78 -84 85 c-76 76 -279 225 -308 225 -6 0 49 32 123 70 269
141 535 357 596 486 19 41 19 107 1 143 -23 43 -78 87 -143 111 -88 34 -275
39 -406 11 -82 -17 -262 -73 -342 -106 -18 -7 -18 -6 -5 7 8 8 152 132 320
274 658 558 810 714 973 996 107 186 143 350 95 433 -14 24 -42 50 -68 65 -41
23 -55 25 -170 25 -105 -1 -141 -5 -225 -28 -176 -48 -276 -105 -545 -305
-101 -75 -208 -168 -307 -266 -84 -82 -153 -147 -153 -143 0 3 100 156 221
339 273 411 333 512 464 781 162 334 201 454 192 588 -11 172 -93 242 -263
226 -229 -22 -422 -169 -704 -541 -85 -112 -233 -329 -285 -419 -15 -26 -29
-46 -31 -44 -3 2 7 46 21 98 71 270 67 402 -15 444 -40 21 -75 19 -140 -8
-259 -107 -473 -379 -648 -824 -128 -325 -163 -463 -207 -830 -51 -425 -60
-480 -126 -843 -125 -683 -148 -775 -249 -975 -54 -107 -56 -110 -99 -122 -24
-7 -52 -15 -62 -18 -17 -6 -17 -3 2 52 98 285 193 738 236 1123 25 232 26 883
0 1110 -53 467 -165 1017 -318 1562 -51 181 -52 185 -59 373 -6 128 -15 223
-29 289 -73 345 -260 698 -506 954 -199 208 -330 271 -444 213 -72 -37 -150
-146 -214 -300 -21 -53 -40 -97 -41 -98 -1 -1 -24 12 -52 31 -367 245 -1025
432 -1645 466 -191 11 -200 11 -409 -1z"/>
</g>
</svg>
