<?xml version="1.0" standalone="no"?>
<!DOCTYPE svg PUBLIC "-//W3C//DTD SVG 20010904//EN"
 "http://www.w3.org/TR/2001/REC-SVG-20010904/DTD/svg10.dtd">
<svg version="1.0" xmlns="http://www.w3.org/2000/svg"
 width="1024.000000pt" height="1024.000000pt" viewBox="0 0 1024.000000 1024.000000"
 preserveAspectRatio="xMidYMid meet">
<metadata>
Created by potrace 1.16, written by Peter Selinger 2001-2019
</metadata>
<g transform="translate(0.000000,1024.000000) scale(0.100000,-0.100000)"
fill="#eaedf4" stroke="none">
<path d="M4160 9504 c-314 -39 -644 -175 -886 -365 l-62 -48 -30 42 c-16 23
-53 66 -81 95 -48 48 -56 52 -98 52 -44 0 -49 -3 -140 -92 -184 -180 -321
-395 -377 -590 -54 -188 -70 -301 -70 -488 1 -246 30 -434 94 -596 27 -67 28
-74 18 -155 -12 -100 -4 -302 18 -452 18 -121 14 -142 -56 -312 -120 -291
-281 -492 -468 -585 -57 -28 -149 -57 -157 -49 -5 6 20 116 40 174 25 72 71
150 132 222 51 60 53 64 53 122 0 87 -30 159 -89 214 -87 82 -157 107 -354
128 -275 30 -566 -39 -688 -163 -116 -118 -229 -427 -323 -883 -39 -188 -46
-291 -46 -639 l0 -326 57 -45 c77 -61 243 -143 318 -156 33 -6 70 -13 83 -15
12 -3 27 -15 31 -27 100 -256 149 -358 238 -489 129 -193 311 -399 523 -593
79 -71 159 -145 179 -164 50 -46 95 -74 166 -101 85 -33 244 -34 365 -1 180
49 382 168 573 336 l98 87 43 -40 c58 -54 159 -127 224 -164 l52 -30 0 -61
c-1 -208 -74 -756 -140 -1052 -90 -403 -231 -846 -323 -1014 -17 -31 -79 -140
-138 -243 -119 -208 -129 -231 -129 -297 0 -90 55 -140 180 -162 102 -19 757
-19 885 -1 155 22 279 102 339 220 39 76 133 519 181 843 65 451 60 1154 -11
1561 l-7 38 130 0 c104 0 300 17 363 32 22 5 84 -204 118 -397 24 -140 24
-542 -1 -668 -41 -212 -126 -491 -196 -641 -45 -97 -140 -263 -223 -393 -64
-99 -77 -142 -59 -195 26 -80 83 -102 298 -119 123 -9 219 -9 423 0 267 12
358 25 455 65 21 9 39 16 40 16 1 0 -4 -19 -12 -42 -55 -160 -30 -253 82 -310
30 -16 70 -22 175 -29 186 -11 609 -10 700 1 168 22 273 82 325 185 l30 60 0
355 c0 241 -4 384 -13 445 -7 50 -20 137 -29 195 -8 58 -19 133 -24 168 -28
194 -91 457 -151 637 -88 261 -239 608 -290 662 -29 31 -104 60 -177 69 l-64
7 7 83 c9 109 27 195 71 335 68 215 93 428 75 628 -24 270 -83 478 -184 650
-20 35 -33 67 -29 72 16 15 195 108 275 142 106 46 262 85 377 96 298 27 542
-77 658 -281 80 -139 129 -309 154 -535 28 -252 -37 -568 -141 -686 -69 -79
-204 -116 -417 -117 -88 0 -133 -4 -133 -11 0 -6 11 -29 24 -52 34 -59 84
-212 107 -328 71 -369 69 -758 -8 -1129 -28 -137 -32 -155 -42 -187 -7 -25 -7
-33 3 -33 42 0 305 105 464 185 78 40 142 71 142 70 0 -1 -11 -27 -24 -56 -52
-120 -80 -291 -80 -499 -1 -183 6 -219 57 -276 47 -54 94 -72 272 -104 310
-55 669 -205 893 -373 51 -38 53 -39 72 -22 86 78 216 311 244 438 l7 28 56
-61 c67 -72 199 -174 268 -206 112 -53 222 -17 356 115 82 82 139 174 170 273
28 88 25 113 -11 128 -40 17 -87 72 -119 139 -23 52 -25 65 -23 187 4 242 -18
316 -122 411 -146 134 -409 107 -514 -53 -38 -57 -48 -110 -29 -155 8 -19 48
-67 91 -108 84 -83 140 -158 161 -217 17 -49 6 -61 -37 -44 -41 17 -158 92
-181 118 -11 12 -21 49 -27 103 -36 294 -99 531 -193 718 -41 82 -44 85 -93
101 -76 24 -190 110 -260 196 l-36 44 75 118 c179 283 262 518 313 889 20 145
23 545 5 683 -94 732 -488 1374 -996 1621 -193 94 -381 123 -660 99 -261 -22
-470 -74 -644 -162 l-93 -47 -82 39 c-44 21 -100 43 -123 48 -53 12 -118 50
-161 95 -40 41 -36 45 63 77 157 51 317 135 390 207 103 99 196 294 241 502
21 96 24 380 5 501 -52 333 -169 628 -368 927 -115 171 -222 278 -403 402
-221 152 -528 277 -790 322 -132 23 -304 39 -419 39 -101 0 -128 3 -142 16
-10 9 -49 25 -86 36 -57 17 -105 21 -288 23 -121 2 -236 1 -255 -1z m1561
-3638 c34 -26 96 -67 139 -93 l77 -46 -35 -46 c-19 -25 -59 -83 -88 -128 -51
-80 -54 -82 -81 -73 -119 41 -362 52 -512 24 -171 -32 -290 -85 -471 -210
-118 -81 -239 -145 -332 -175 -67 -22 -214 -46 -223 -38 -10 11 -73 278 -80
341 l-7 65 48 -7 c27 -5 117 -14 201 -20 165 -14 364 -3 493 25 92 21 210 65
210 79 0 6 -12 17 -28 23 -43 19 -105 84 -92 97 7 7 17 6 33 -4 145 -94 251
-78 386 58 96 96 191 242 191 293 0 16 14 3 55 -49 30 -38 82 -91 116 -116z
m-3037 -1013 c20 -125 55 -272 91 -392 14 -47 22 -88 18 -91 -17 -14 -238 -43
-419 -55 l-100 -7 -63 132 c-35 73 -76 168 -92 212 -15 43 -30 82 -33 87 -3 4
34 18 82 31 139 37 307 97 400 145 48 24 89 44 92 44 3 1 14 -47 24 -106z"/>
</g>
</svg>
