<?xml version="1.0" standalone="no"?>
<!DOCTYPE svg PUBLIC "-//W3C//DTD SVG 20010904//EN"
 "http://www.w3.org/TR/2001/REC-SVG-20010904/DTD/svg10.dtd">
<svg version="1.0" xmlns="http://www.w3.org/2000/svg"
 width="1600.000000pt" height="1600.000000pt" viewBox="0 0 1600.000000 1600.000000"
 preserveAspectRatio="xMidYMid meet">
<metadata>
Created by potrace 1.16, written by Peter Selinger 2001-2019
</metadata>
<g transform="translate(0.000000,1600.000000) scale(0.100000,-0.100000)"
fill="#eaedf4" stroke="none">
<path d="M9366 15805 c-189 -114 -399 -341 -535 -579 -219 -384 -339 -966
-302 -1465 7 -84 9 -156 7 -159 -9 -8 -241 55 -444 120 -894 288 -1823 852
-2542 1543 -314 302 -624 475 -851 475 -178 0 -277 -88 -310 -275 -39 -223 76
-644 307 -1124 41 -85 74 -155 74 -157 0 -5 -165 53 -255 91 -184 76 -300 143
-411 237 -505 425 -1048 709 -1489 778 -101 16 -289 14 -358 -5 -130 -34 -228
-115 -264 -218 -28 -81 -23 -219 12 -327 97 -301 355 -653 804 -1099 175 -175
191 -194 160 -187 -19 3 -137 9 -264 13 -450 12 -702 -37 -825 -160 -83 -83
-93 -202 -27 -339 152 -315 708 -793 1644 -1410 144 -95 262 -175 262 -179 1
-3 -45 -11 -101 -18 -312 -38 -562 -121 -668 -223 -224 -215 28 -504 608 -698
157 -52 360 -101 509 -123 l88 -13 -83 -7 c-436 -38 -916 -197 -1282 -425
-865 -538 -1474 -1555 -1865 -3113 -205 -816 -352 -1784 -454 -2994 -27 -308
-72 -978 -67 -983 18 -17 660 -410 666 -407 4 2 10 102 13 222 9 330 44 593
122 908 54 216 123 434 124 390 3 -87 22 -416 31 -520 33 -376 104 -667 224
-921 l53 -111 144 -7 c79 -4 466 -24 859 -46 393 -22 1091 -60 1550 -84 459
-25 859 -47 888 -49 28 -2 52 -2 52 1 0 2 -43 82 -95 178 -603 1094 -873 2296
-769 3422 95 1031 516 1848 1113 2161 178 92 405 151 587 151 169 0 393 -47
575 -120 94 -38 303 -141 322 -159 4 -4 -11 -39 -34 -77 -126 -206 -217 -485
-261 -794 -8 -61 -13 -193 -13 -365 1 -361 22 -537 140 -1150 61 -317 80 -432
90 -542 l6 -72 -28 14 c-34 18 -119 19 -152 2 -25 -13 -98 -197 -265 -672
-288 -817 -448 -1548 -521 -2375 -36 -413 -4 -741 88 -914 55 -103 141 -174
263 -216 163 -57 382 -83 699 -84 375 0 551 47 634 170 22 32 28 35 55 29 217
-45 573 -67 755 -46 351 41 535 174 534 385 -1 90 -31 173 -112 304 -201 332
-340 722 -403 1132 -30 196 -32 634 -4 835 80 580 287 1124 619 1625 38 58 74
110 81 117 8 8 34 7 106 -7 135 -27 357 -43 479 -34 98 6 103 6 98 -12 -36
-119 -128 -547 -181 -839 -103 -565 -168 -1103 -197 -1633 -15 -282 -6 -991
15 -1202 47 -456 137 -916 200 -1025 178 -303 1080 -430 1510 -213 105 53 216
182 216 251 0 15 5 18 24 13 66 -16 296 -36 424 -36 288 0 444 66 522 220 57
114 63 215 24 437 -120 696 -154 897 -224 1313 -197 1178 -300 2020 -340 2785
-6 110 -12 223 -14 250 l-4 50 70 55 c413 327 611 883 559 1570 -30 385 -97
727 -290 1458 -118 449 -164 644 -190 812 -24 151 -35 289 -27 327 l6 28 168
-3 c679 -14 1341 228 1634 597 141 177 180 343 114 487 -41 90 -141 173 -259
216 l-58 21 34 36 c268 283 398 1084 286 1760 -22 135 -65 288 -104 377 -14
31 -25 58 -25 60 0 15 608 -4 873 -27 71 -6 131 -8 134 -6 20 20 66 446 74
677 1 24 10 1 29 -77 36 -141 56 -257 79 -461 10 -89 21 -165 25 -169 7 -8
818 -65 824 -58 6 6 -18 110 -69 300 -114 427 -219 716 -374 1030 -172 347
-311 550 -530 771 -147 148 -251 231 -400 319 -470 278 -1061 337 -1830 184
-278 -56 -576 -135 -1154 -309 -679 -203 -1025 -283 -1326 -308 l-90 -7 -41
103 c-50 121 -131 268 -225 407 -78 115 -195 255 -213 255 -7 0 -38 -16 -70
-35z"/>
</g>
</svg>
